<?xml version="1.0" standalone="no"?>
<!DOCTYPE svg PUBLIC "-//W3C//DTD SVG 20010904//EN"
 "http://www.w3.org/TR/2001/REC-SVG-20010904/DTD/svg10.dtd">
<svg version="1.0" xmlns="http://www.w3.org/2000/svg"
 width="700.000000pt" height="700.000000pt" viewBox="0 0 700.000000 700.000000"
 preserveAspectRatio="xMidYMid meet">
<metadata>
Created by potrace 1.11, written by Peter Selinger 2001-2013
</metadata>
<g transform="translate(0.000000,700.000000) scale(0.100000,-0.100000)"
fill="#000000" stroke="none">
<path d="M145 6001 c-87 -41 -136 -119 -130 -206 2 -27 27 -126 55 -220 28
-93 53 -180 56 -192 2 -12 9 -35 15 -50 6 -16 12 -35 14 -43 2 -8 51 -175 110
-370 58 -195 108 -364 110 -374 3 -11 13 -47 24 -80 11 -34 36 -117 56 -186
20 -69 47 -161 60 -205 14 -44 58 -195 100 -335 42 -140 85 -284 96 -320 10
-36 24 -81 29 -100 5 -19 21 -71 34 -115 14 -44 59 -197 101 -340 42 -143 121
-408 175 -590 54 -181 135 -454 180 -605 72 -243 117 -393 152 -510 26 -86 60
-129 129 -160 81 -37 166 -20 233 44 22 23 111 124 195 226 85 102 157 187
160 190 4 3 51 59 106 125 55 66 102 122 105 125 5 4 64 75 125 148 11 14 25
30 30 36 6 6 132 155 280 331 148 176 295 350 326 386 l56 66 74 -69 c41 -39
141 -134 223 -212 82 -77 172 -163 200 -190 28 -26 119 -112 201 -191 83 -78
177 -168 210 -200 33 -31 125 -118 205 -194 80 -76 165 -157 190 -180 25 -23
119 -114 210 -201 220 -211 229 -219 275 -241 38 -18 77 -19 971 -19 l930 0
51 25 c85 43 133 130 118 220 -5 32 -90 330 -134 470 -6 17 -71 237 -146 490
-75 253 -149 503 -165 555 -16 52 -65 219 -110 370 -45 151 -106 358 -137 460
-30 102 -72 244 -93 315 -21 72 -52 175 -68 230 -17 55 -48 161 -70 235 -22
74 -58 197 -81 273 -78 261 -120 403 -190 637 -158 536 -193 643 -214 672 -59
80 -187 107 -275 58 -26 -14 -79 -67 -135 -134 -50 -60 -104 -123 -119 -140
-14 -17 -95 -112 -178 -211 -83 -99 -169 -200 -190 -225 -145 -171 -179 -212
-215 -255 -22 -26 -58 -69 -80 -95 -22 -25 -53 -62 -70 -82 -313 -372 -439
-518 -446 -516 -4 2 -40 34 -81 73 -40 38 -147 139 -237 225 -195 186 -196
187 -390 370 -85 80 -170 161 -190 180 -20 19 -104 99 -186 177 -168 158 -188
177 -411 389 -229 218 -245 232 -290 254 -39 20 -63 20 -970 20 -887 0 -931
-1 -969 -19z m1791 -436 c58 -56 559 -533 592 -563 15 -14 103 -97 196 -186
269 -256 537 -510 602 -572 23 -21 115 -109 205 -194 228 -217 219 -209 395
-376 87 -83 179 -170 204 -193 75 -70 358 -340 455 -432 157 -151 180 -164
274 -157 115 8 196 97 195 213 -1 99 4 92 -300 381 -87 83 -175 166 -194 184
-19 18 -106 101 -193 184 -87 83 -163 153 -168 154 -13 5 -11 17 9 40 45 54
61 73 132 157 41 50 79 95 85 101 5 6 114 134 240 284 451 536 470 558 510
605 14 17 49 58 78 92 28 34 55 59 59 55 4 -4 16 -38 26 -77 11 -38 36 -122
55 -185 20 -63 81 -270 137 -460 55 -190 105 -356 109 -370 5 -14 18 -56 29
-95 12 -38 69 -232 128 -430 58 -198 137 -466 176 -595 38 -129 112 -379 164
-555 52 -176 97 -327 99 -335 2 -8 31 -105 64 -215 145 -486 173 -581 176
-596 3 -14 -65 -15 -691 -15 l-694 1 -57 54 c-64 59 -133 124 -392 371 -95 91
-192 183 -215 204 -22 22 -111 105 -196 186 -85 81 -171 162 -190 180 -19 18
-109 103 -200 190 -91 87 -181 172 -200 190 -46 42 -262 248 -580 550 -43 41
-328 312 -390 370 -15 14 -100 95 -189 180 -90 85 -173 163 -184 173 -52 45
-147 62 -212 37 -88 -33 -139 -109 -139 -205 1 -68 17 -106 67 -156 30 -30
298 -287 387 -370 19 -18 115 -110 213 -203 98 -94 183 -172 188 -174 15 -6
10 -18 -20 -54 -31 -35 -162 -189 -190 -223 -43 -52 -228 -273 -247 -295 -12
-14 -102 -119 -199 -235 -98 -115 -197 -232 -220 -260 -23 -27 -84 -99 -135
-160 -51 -60 -95 -109 -98 -108 -9 2 -81 242 -302 993 -16 52 -54 181 -85 285
-31 105 -68 228 -82 275 -13 47 -34 114 -45 150 -11 36 -22 74 -25 85 -3 11
-21 72 -40 135 -20 63 -39 129 -43 145 -4 17 -45 154 -90 305 -45 151 -106
356 -135 455 -29 99 -101 342 -160 540 -153 514 -163 549 -159 556 1 3 315 5
696 5 684 0 693 0 714 -21z"/>
</g>
</svg>
