<svg width="38" height="38" viewBox="0 0 38 38" fill="none" xmlns="http://www.w3.org/2000/svg">
<path d="M28.6205 15.2384L19.4799 9.14468C19.1679 8.95269 18.8349 8.95093 18.5201 9.14468L9.37945 15.2384C9.14508 15.3946 9 15.6737 9 15.9527V22.0464C9 22.3254 9.14508 22.6044 9.37949 22.7607L18.5201 28.8553C18.8321 29.0473 19.1651 29.0491 19.4799 28.8553L28.6205 22.7607C28.8549 22.6045 29 22.3254 29 22.0464V15.9527C29 15.6737 28.8549 15.3946 28.6205 15.2384V15.2384ZM19.8594 11.4661L26.5893 15.9527L23.5871 17.9616L19.8594 15.4728V11.4661ZM18.1406 11.4661V15.4728L14.4129 17.9616L11.4107 15.9527L18.1406 11.4661ZM10.7188 17.5598L12.8728 18.9996L10.7188 20.4393V17.5598ZM18.1406 26.5331L11.4107 22.0464L14.4129 20.0375L18.1406 22.5264V26.5331ZM19 21.0308L15.9643 18.9996L19 16.9683L22.0357 18.9996L19 21.0308ZM19.8594 26.5331V22.5264L23.5871 20.0375L26.5893 22.0464L19.8594 26.5331ZM27.2812 20.4393L25.1272 18.9996L27.2812 17.5598V20.4393Z" fill="black"/>
</svg>
