<svg xmlns="http://www.w3.org/2000/svg" viewBox="0 0 145.46 104.48">
  <title>Nate Druss Logo</title>
  <path d="M145.45,100.77c0-.11,0-.23,0-.34a2.44,2.44,0,0,0-.07-.39s0-.09,0-.13L116.43,2.59v0a1.12,1.12,0,0,0,0-.13,3.11,3.11,0,0,0-.21-.5,1.32,1.32,0,0,0-.16-.25,1.9,1.9,0,0,0-.22-.33,2.62,2.62,0,0,0-.28-.3c-.07-.06-.12-.13-.19-.19l0,0c-.12-.09-.25-.17-.38-.25a3.27,3.27,0,0,0-.75-.37l-.08,0c-.14,0-.28-.06-.42-.09l-.26,0a3.72,3.72,0,0,0-.58,0l-.26,0a3.1,3.1,0,0,0-.53.1h0a1.54,1.54,0,0,0-.24.1,2.5,2.5,0,0,0-.38.15,3.78,3.78,0,0,0-.33.22l-.25.16a3.15,3.15,0,0,0-.37.36l-.13.12,0,0h0l-29.57,35L43.43,1a1.56,1.56,0,0,0-.2-.16,3.65,3.65,0,0,0-.31-.24c-.1-.07-.2-.11-.3-.17A3.13,3.13,0,0,0,42.3.26,2.24,2.24,0,0,0,42,.15L41.64.07a3.05,3.05,0,0,0-.41,0L41,0H3.41l-.36,0L2.68.12l-.14,0a1.22,1.22,0,0,0-.17.07L2,.36a2.69,2.69,0,0,0-.29.16,2.9,2.9,0,0,0-.29.19,2,2,0,0,0-.27.23l-.23.23a3,3,0,0,0-.23.27c-.06.09-.13.18-.19.28S.41,1.91.36,2a2.88,2.88,0,0,0-.13.31,3.37,3.37,0,0,0-.1.34A1.65,1.65,0,0,0,.06,3c0,.13,0,.25,0,.38s0,.12,0,.18,0,.1,0,.15,0,.24,0,.36,0,.25.07.37a.89.89,0,0,0,0,.14L29,101.89h0v0a3.69,3.69,0,0,0,.23.58l.08.13a3,3,0,0,0,.26.42l.13.15a3.76,3.76,0,0,0,.34.35l.07.08.08,0,.32.23.19.12a2.52,2.52,0,0,0,.34.15,1.89,1.89,0,0,0,.21.09,2.88,2.88,0,0,0,.42.11l.14,0a3.92,3.92,0,0,0,.59,0,3.07,3.07,0,0,0,.67-.08l.17,0,.18,0,.24-.1.31-.13c.14-.07.26-.15.39-.23l.23-.15a3.05,3.05,0,0,0,.45-.43s.06-.05.08-.08l0,0h0l29.57-35L102,103.5a2,2,0,0,0,.23.18c.09.07.18.15.27.21l.33.18a2.44,2.44,0,0,0,.28.14,2.91,2.91,0,0,0,.39.12l.26.08a4,4,0,0,0,.69.07h37.43a3.38,3.38,0,0,0,.63-.07l.19,0,.19,0,.17-.07a2.17,2.17,0,0,0,.35-.15,2.8,2.8,0,0,0,.3-.15l.29-.2a2.75,2.75,0,0,0,.26-.22,1.36,1.36,0,0,0,.24-.24,2.75,2.75,0,0,0,.22-.26,2.9,2.9,0,0,0,.19-.29,2.54,2.54,0,0,0,.16-.28c.05-.11.1-.22.14-.33s.07-.21.1-.32,0-.23.07-.34a2.19,2.19,0,0,0,0-.36,1.36,1.36,0,0,0,0-.2S145.45,100.82,145.45,100.77Zm-39.56-3.4L46.82,41.3a3.55,3.55,0,1,0-4.9,5.15L59.61,63.24,34,93.59,8.32,7.11H39.57L98.64,63.18a3.56,3.56,0,1,0,4.9-5.16L85.86,41.24l25.61-30.36,25.68,86.49Z"/>
</svg>